<svg id="Layer_1" enable-background="new 0 0 512 512" height="512" viewBox="0 0 512 512" width="512" xmlns="http://www.w3.org/2000/svg"><g><path d="m191.001 432.5c0 8.284-6.716 15-15 15s-15-6.716-15-15v-.5h-19.001c-8.284 0-15-6.716-15-15s6.716-15 15-15h19.001v-.5c0-8.284 6.716-15 15-15s15 6.716 15 15v.5h99.999v-124.314c19.319-14.033 31-36.546 31-60.686v-92.759c-11.409 8.007-25.285 12.725-40.25 12.725-14.961 0-28.843-4.7-40.25-12.703-11.407 8.002-25.289 12.703-40.25 12.703s-28.843-4.7-40.25-12.703c-2.672 1.875-5.494 3.544-8.421 5.038-3.214 13.389-11.67 24.761-23.071 31.811 14.571 11.771 26.945 24.916 36.979 39.306 12.839 18.412 21.778 38.712 26.568 60.336 1.792 8.088-3.312 16.098-11.4 17.89-1.092.242-2.184.358-3.258.358-6.881 0-13.081-4.763-14.631-11.758-3.938-17.777-11.303-34.487-21.887-49.667-13.744-19.71-32.95-36.812-57.085-50.829-5.864-3.406-8.715-10.324-6.95-16.872 1.764-6.549 7.701-11.099 14.483-11.099h10.173c11.855 0 21.5-9.645 21.5-21.5s-9.645-21.5-21.5-21.5h-102.5v121.223c0 24.141 11.681 46.654 31 60.687v219.313c0 8.284 6.716 15 15 15h230c8.284 0 15-6.716 15-15v-65h-99.999z"/><path d="m149.043 95.255c7.37-7.302 11.957-17.406 11.957-28.539 0 22.138 18.112 40.25 40.25 40.25s40.25-18.112 40.25-40.25c0 22.138 18.112 40.25 40.25 40.25s40.25-18.112 40.25-40.25v-26.465c0-22.138-18.112-40.251-40.25-40.251-22.137 0-40.25 18.112-40.25 40.25 0-22.137-18.112-40.25-40.25-40.25s-40.25 18.113-40.25 40.251c0-22.138-18.112-40.251-40.25-40.251s-40.25 18.113-40.25 40.251c0-22.138-18.112-40.251-40.25-40.251s-40.25 18.113-40.25 40.251v25.527h102.5c20.521 0 38.272 12.068 46.543 29.477z"/><path d="m467 0h-70c-24.813 0-45 20.187-45 45v116c0 21.377 14.984 39.32 35 43.88v14.12c0 8.284 6.716 15 15 15h60c8.284 0 15-6.716 15-15v-14.12c20.016-4.56 35-22.503 35-43.88v-116c0-24.813-20.187-45-45-45z"/><path d="m416.998 312c0 49.626-40.374 90-90 90h-35.998v30h35.998c66.168 0 120-53.832 120-120v-48h-30z"/></g></svg>