<svg viewBox="-111 0 512 512.00004" xmlns="http://www.w3.org/2000/svg"><path d="m261.960938 0h-233.269532c-15.84375 0-28.691406 12.847656-28.691406 28.691406v454.617188c0 15.945312 12.964844 28.691406 28.691406 28.691406h233.269532c15.78125 0 28.695312-12.796875 28.695312-28.691406 0-3.910156 0-423.917969 0-454.617188 0-15.84375-12.847656-28.691406-28.695312-28.691406zm0 0" fill="#594972"/><path d="m163.785156 468.601562c0 10.195313-8.265625 18.457032-18.457031 18.457032-10.195313 0-18.457031-8.261719-18.457031-18.457032 0-10.195312 8.261718-18.457031 18.457031-18.457031 10.191406 0 18.457031 8.261719 18.457031 18.457031zm0 0" fill="#493b63"/><path d="m155.628906 453.285156c-2.941406-1.984375-6.484375-3.144531-10.300781-3.144531-10.195313 0-18.457031 8.265625-18.457031 18.460937 0 10.191407 8.261718 18.457032 18.457031 18.457032 3.816406 0 7.359375-1.160156 10.300781-3.144532-10.878906-7.332031-10.855468-23.3125 0-30.628906zm0 0" fill="#3b3054"/><path d="m35.523438 108.488281v309.675781c0 4.421876 3.585937 8.011719 8.011718 8.011719h203.582032c4.425781 0 8.011718-3.589843 8.011718-8.011719v-309.675781c-9.449218 0-210.167968 0-219.605468 0zm0 0" fill="#e5f0f9"/><path d="m56.257812 418.164062v-309.675781c-11.457031 0-19.070312 0-20.734374 0v309.675781c0 4.421876 3.585937 8.011719 8.011718 8.011719h20.734375c-4.425781 0-8.011719-3.589843-8.011719-8.011719zm0 0" fill="#c8e7fc"/><path d="m187.0625 240.851562-36.773438-76.859374c-1.996093-4.167969-7.929687-4.167969-9.921874 0l-36.773438 76.859374c-14.691406 30.707032 7.691406 66.230469 41.734375 66.230469s56.425781-35.523437 41.734375-66.230469zm0 0" fill="#ef4d64"/><path d="m161.804688 251.546875h-8.75v-8.753906c0-4.265625-3.460938-7.726563-7.726563-7.726563-4.269531 0-7.730469 3.460938-7.730469 7.726563v8.753906h-8.75c-4.265625 0-7.726562 3.457031-7.726562 7.726563 0 4.269531 3.457031 7.726562 7.726562 7.726562h8.75v8.75c0 4.269531 3.460938 7.730469 7.730469 7.730469 4.265625 0 7.726563-3.460938 7.726563-7.730469v-8.75h8.75c4.269531 0 7.726562-3.457031 7.726562-7.726562 0-4.269532-3.457031-7.726563-7.726562-7.726563zm0 0" fill="#e5f0f9"/><path d="m176.898438 344.070312h-63.140626c-6.773437 0-12.3125 5.539063-12.3125 12.3125v15.125c0 6.769532 5.539063 12.308594 12.3125 12.308594h63.140626c6.773437 0 12.3125-5.539062 12.3125-12.308594v-15.125c0-6.769531-5.539063-12.3125-12.3125-12.3125zm0 0" fill="#52db96"/><path d="m20.605469 483.308594c0-3.910156 0-423.917969 0-454.617188 0-15.84375 12.84375-28.691406 28.691406-28.691406h-20.605469c-15.84375 0-28.691406 12.847656-28.691406 28.691406v454.617188c0 15.945312 12.964844 28.691406 28.691406 28.691406h20.605469c-15.730469 0-28.691406-12.746094-28.691406-28.691406zm0 0" fill="#493b63"/><path d="m124.195312 240.851562 31.433594-65.695312-5.339844-11.164062c-1.996093-4.167969-7.929687-4.167969-9.925781 0l-36.773437 76.859374c-14.691406 30.707032 7.695312 66.234376 41.734375 66.234376 3.578125 0 7.015625-.414063 10.304687-1.152344-28.023437-6.28125-44.578125-37.601563-31.433594-65.082032zm0 0" fill="#e03455"/><path d="m122.050781 371.507812v-15.125c0-6.769531 5.539063-12.3125 12.308594-12.3125h-20.601563c-6.773437 0-12.3125 5.542969-12.3125 12.3125v15.125c0 6.769532 5.539063 12.3125 12.3125 12.3125h20.601563c-6.769531 0-12.308594-5.542968-12.308594-12.3125zm0 0" fill="#39c67c"/><path d="m170.828125 41.488281h-51c-4.265625 0-7.726563-3.460937-7.726563-7.726562 0-4.269531 3.460938-7.726563 7.726563-7.726563h51c4.265625 0 7.726563 3.457032 7.726563 7.726563 0 4.265625-3.460938 7.726562-7.726563 7.726562zm0 0" fill="#493b63"/><path d="m247.117188 70.800781h-203.582032c-4.421875 0-8.011718 3.585938-8.011718 8.011719v31.734375h219.605468v-31.734375c0-4.425781-3.585937-8.011719-8.011718-8.011719zm0 0" fill="#50b2ef"/><path d="m81.359375 70.800781h-37.824219c-4.421875 0-8.011718 3.585938-8.011718 8.011719v31.734375h45.835937zm0 0" fill="#ef4d64"/><path d="m64.269531 70.800781h-20.734375c-4.421875 0-8.011718 3.585938-8.011718 8.011719v31.734375h20.734374v-31.734375c0-4.425781 3.585938-8.011719 8.011719-8.011719zm0 0" fill="#e03455"/></svg>