<svg viewBox="0 -30 512 512" xmlns="http://www.w3.org/2000/svg"><path d="m302.621094 89.351562-41.078125-85.859374c-2.230469-4.65625-8.859375-4.65625-11.085938 0l-41.078125 85.859374c-16.414062 34.304688 8.59375 73.988282 46.621094 73.988282s63.035156-39.683594 46.621094-73.988282zm0 0" fill="#ef4d64"/><path d="m229.984375 89.351562 36.320313-75.910156-4.761719-9.949218c-2.226563-4.65625-8.855469-4.65625-11.085938 0l-41.078125 85.859374c-16.414062 34.304688 8.59375 73.988282 46.621094 73.988282 3.554688 0 6.996094-.347656 10.300781-1.003906-32.039062-6.371094-51.195312-41.886719-36.316406-72.984376zm0 0" fill="#e03455"/><path d="m274.40625 102.203125h-10.679688v-10.679687c0-4.269532-3.457031-7.726563-7.726562-7.726563s-7.726562 3.457031-7.726562 7.726563v10.679687h-10.679688c-4.269531 0-7.730469 3.460937-7.730469 7.726563 0 4.269531 3.460938 7.726562 7.730469 7.726562h10.679688v10.683594c0 4.265625 3.457031 7.726562 7.726562 7.726562s7.726562-3.460937 7.726562-7.726562v-10.683594h10.679688c4.269531 0 7.730469-3.457031 7.730469-7.726562 0-4.265626-3.460938-7.726563-7.730469-7.726563zm0 0" fill="#e5f0f9"/><path d="m352.21875 184.667969-4.117188 4.113281.003907.003906c-2.074219 2.035156-4.023438 4.171875-5.867188 6.019532-8.238281 8.097656-15.789062 14.167968-23.890625 14.128906 0 0-15.367187-.074219-15.488281-.074219v.003906c-10.699219-.054687-21.449219 3.800781-21.582031 3.851563l-79.273438 31.058594c-18.910156 6.980468-13.222656 37.4375 11.050782 33.390624l35.003906-4.730468 99.796875 112.402344 47.796875-47.917969c22.0625-22.019531 2.886718-37.953125 20.625-55.664063.007812-.011718 13.890625-13.878906 13.894531-13.882812l2.375-2.375c-16.480469-16.476563-62.21875-62.21875-80.328125-80.328125zm0 0" fill="#e59770"/><path d="m212.679688 262.78125 83.722656-32.804688c.136718-.050781 11.492187-4.121093 22.792968-4.066406v-.003906c.128907.003906 16.359376.082031 16.359376.082031 8.554687.039063 16.53125-6.371093 25.230468-14.921875v-.003906c1.945313-1.945312 4.007813-4.207031 6.195313-6.355469v-.003906l2.636719-2.636719-17.398438-17.398437-4.117188 4.113281.003907.003906c-2.074219 2.035156-4.023438 4.175782-5.867188 6.019532-8.238281 8.097656-15.789062 14.167968-23.890625 14.128906 0 0-15.367187-.074219-15.488281-.074219v.003906c-10.699219-.054687-21.449219 3.800781-21.582031 3.851563l-79.273438 31.058594c-15.277344 5.636718-14.492187 26.585937-.839844 32.300781 1.136719-5.667969 4.890626-10.847657 11.515626-13.292969zm0 0" fill="#d88864"/><path d="m346.472656 395.226562c6.75-6.765624 6.707032-17.683593-.054687-24.433593l-97.796875-98.386719c-.300782-.300781-.722656-.445312-1.144532-.382812l-34.484374 4.964843c-24.273438 4.046875-29.25-25.785156-10.988282-32.183593l54.15625-22.25c-21.5625-8.449219-32.207031-13.765626-46.699218-13.695313h-.003907c-.117187 0-15.488281.074219-15.488281.074219-8.101562.039062-15.652344-6.03125-23.890625-14.128906l.003906-.003907c-1.84375-1.84375-3.796875-3.980469-5.867187-6.019531l-4.273438-4.273438c-88.488281 88.484376-27.628906 27.625-80.328125 80.324219 3.792969 3.792969 16.433594 16.417969 16.433594 16.417969 17.734375 17.710938-1.441406 33.644531 20.621094 55.664062l51.660156 51.585938-.039063.035156 57.894532 57.894532c6.757812 6.757812 17.71875 6.761718 24.480468 0 6.761719-6.761719 6.761719-17.726563 0-24.484376l21.96875 21.96875c6.871094 6.867188 18.324219 7.078126 25.0625.082032 6.53125-6.785156 6.453126-17.582032-.234374-24.269532l8.941406 8.945313c6.867187 6.867187 18.324218 7.078125 25.058594.082031 6.535156-6.785156 6.453124-17.582031-.234376-24.269531l-9.042968-9.042969.015625-.015625c6.777343 6.558594 17.585937 6.496094 24.273437-.199219zm0 0" fill="#f0a479"/><g fill="#ea976e"><path d="m200.980469 393.355469.046875-.046875-62.898438-62.808594c-26.863281-26.8125-3.519531-46.210938-25.113281-67.777344-.011719-.011718-11.730469-11.722656-15.652344-15.636718-5.808593 5.808593-2.679687 2.683593-17.746093 17.746093 3.792968 3.792969 16.429687 16.417969 16.429687 16.417969 17.734375 17.710938-1.4375 33.644531 20.625 55.664062l51.65625 51.585938-.035156.035156 57.890625 57.894532c6.761718 6.757812 17.722656 6.761718 24.480468 0 .578126-.574219 1.089844-1.191407 1.566407-1.828126zm0 0"/><path d="m233.132812 325.152344c-3.996093-4.050782-10.519531-4.09375-14.570312-.097656-4.050781 3.992187-4.09375 10.515624-.097656 14.566406 91.710937 92.964844 78.859375 79.96875 87.941406 89.050781 6.867188 6.867187 18.320312 7.078125 25.058594.082031.652344-.679687 1.222656-1.40625 1.746094-2.15625zm0 0"/><path d="m259.921875 302.945312c-3.996094-4.050781-10.519531-4.09375-14.570313-.097656-4.050781 3.992188-4.09375 10.515625-.097656 14.566406l77.015625 78.070313c7.632813 7.316406 20.136719 6.195313 26.242188-2.738281zm0 0"/><path d="m207.207031 348.3125c-3.988281-4.058594-10.511719-4.113281-14.570312-.125-4.054688 3.992188-4.109375 10.511719-.121094 14.570312 71.296875 72.511719 55.320313 56.359376 80.121094 81.15625 6.867187 6.867188 18.320312 7.078126 25.058593.082032.605469-.628906 1.136719-1.304688 1.628907-1.996094zm0 0"/></g><path d="m443.960938 277.441406c2.515624 2.515625 6.59375 2.515625 9.109374 0l57.042969-57.042968c2.515625-2.515626 2.515625-6.59375 0-9.109376-2.226562-2.230468-104.570312-104.570312-103.867187-103.871093-2.515625-2.515625-6.59375-2.515625-9.109375 0l-57.042969 57.042969c-2.519531 2.515624-2.519531 6.59375 0 9.109374 3.433594 3.433594 107.054688 107.058594 103.867188 103.871094zm0 0" fill="#e5f0f9"/><path d="m353.4375 178.945312 58.179688-58.179687c1.695312-1.695313 4.085937-2.265625 6.253906-1.71875l-11.625-11.628906c-2.515625-2.515625-6.59375-2.515625-9.109375 0l-57.042969 57.042969c-2.519531 2.519531-2.519531 6.597656 0 9.113281l11.625 11.625c-.546875-2.167969.023438-4.558594 1.71875-6.253907zm0 0" fill="#c8e7fc"/><path d="m68.039062 277.441406c-2.515624 2.515625-6.59375 2.515625-9.109374 0l-57.042969-57.042968c-2.515625-2.515626-2.515625-6.59375 0-9.109376 2.226562-2.230468 104.570312-104.570312 103.867187-103.871093 2.515625-2.515625 6.59375-2.515625 9.109375 0l57.042969 57.042969c2.519531 2.515624 2.519531 6.59375 0 9.109374-3.433594 3.433594-107.054688 107.058594-103.867188 103.871094zm0 0" fill="#e5f0f9"/><path d="m76.96875 264.015625-61.65625-61.65625c-.8125-.808594-1.375-1.773437-1.703125-2.792969l-11.722656 11.722656c-2.515625 2.515626-2.515625 6.59375 0 9.109376l57.042969 57.042968c2.515624 2.515625 6.59375 2.515625 9.109374 0l11.722657-11.722656c-1.019531-.328125-1.984375-.890625-2.792969-1.703125zm0 0" fill="#c8e7fc"/></svg>